<mxfile host="app.diagrams.net" modified="2022-06-30T11:42:00.398Z" agent="5.0 (Macintosh; Intel Mac OS X 10_15_7) AppleWebKit/537.36 (KHTML, like Gecko) Chrome/103.0.0.0 Safari/537.36" etag="2Fpzxc-XDmyoB8VDdcL5" version="20.0.3" type="github" pages="4">
  <diagram id="C5RBs43oDa-KdzZeNtuy" name="Page-1">
    <mxGraphModel dx="1234" dy="736" grid="1" gridSize="10" guides="1" tooltips="1" connect="1" arrows="1" fold="1" page="1" pageScale="1" pageWidth="827" pageHeight="1169" math="0" shadow="0">
      <root>
        <mxCell id="WIyWlLk6GJQsqaUBKTNV-0" />
        <mxCell id="WIyWlLk6GJQsqaUBKTNV-1" parent="WIyWlLk6GJQsqaUBKTNV-0" />
        <mxCell id="x7Frr8k84MyhuP3hxfto-6" value="" style="rounded=0;whiteSpace=wrap;html=1;sketch=1;fontColor=#1A1A1A;strokeColor=#D0CEE2;fillColor=none;" parent="WIyWlLk6GJQsqaUBKTNV-1" vertex="1">
          <mxGeometry x="40" y="80" width="210" height="230" as="geometry" />
        </mxCell>
        <mxCell id="x7Frr8k84MyhuP3hxfto-1" style="edgeStyle=orthogonalEdgeStyle;curved=0;rounded=1;sketch=1;orthogonalLoop=1;jettySize=auto;html=1;exitX=0.5;exitY=1;exitDx=0;exitDy=0;entryX=0.5;entryY=0;entryDx=0;entryDy=0;fontColor=#1A1A1A;strokeColor=#09555B;" parent="WIyWlLk6GJQsqaUBKTNV-1" source="x7Frr8k84MyhuP3hxfto-6" target="x7Frr8k84MyhuP3hxfto-0" edge="1">
          <mxGeometry relative="1" as="geometry">
            <mxPoint x="220" y="260" as="sourcePoint" />
          </mxGeometry>
        </mxCell>
        <mxCell id="x7Frr8k84MyhuP3hxfto-13" style="edgeStyle=orthogonalEdgeStyle;curved=0;rounded=1;sketch=1;orthogonalLoop=1;jettySize=auto;html=1;exitX=1;exitY=0.5;exitDx=0;exitDy=0;fontColor=#1A1A1A;strokeColor=#09555B;entryX=0;entryY=0.5;entryDx=0;entryDy=0;" parent="WIyWlLk6GJQsqaUBKTNV-1" source="x7Frr8k84MyhuP3hxfto-0" target="x7Frr8k84MyhuP3hxfto-16" edge="1">
          <mxGeometry relative="1" as="geometry">
            <mxPoint x="270" y="429.7142857142858" as="targetPoint" />
          </mxGeometry>
        </mxCell>
        <mxCell id="x7Frr8k84MyhuP3hxfto-0" value="Bill Config Admin 生成模板" style="rounded=1;whiteSpace=wrap;html=1;fontSize=12;glass=0;strokeWidth=1;shadow=0;sketch=1;fillColor=#FAD9D5;strokeColor=#D0CEE2;fontColor=#1A1A1A;" parent="WIyWlLk6GJQsqaUBKTNV-1" vertex="1">
          <mxGeometry x="60" y="400" width="170" height="60" as="geometry" />
        </mxCell>
        <mxCell id="x7Frr8k84MyhuP3hxfto-4" value="" style="endArrow=classic;html=1;rounded=1;sketch=1;fontColor=#1A1A1A;strokeColor=#09555B;curved=0;exitX=0.5;exitY=1;exitDx=0;exitDy=0;" parent="WIyWlLk6GJQsqaUBKTNV-1" source="x7Frr8k84MyhuP3hxfto-45" target="x7Frr8k84MyhuP3hxfto-41" edge="1">
          <mxGeometry relative="1" as="geometry">
            <mxPoint x="145" y="160" as="sourcePoint" />
            <mxPoint x="145" y="230" as="targetPoint" />
          </mxGeometry>
        </mxCell>
        <mxCell id="x7Frr8k84MyhuP3hxfto-5" value="" style="shape=message;html=1;outlineConnect=0;rounded=0;sketch=1;fontColor=#1A1A1A;strokeColor=#09555B;fillColor=#FAD9D5;" parent="x7Frr8k84MyhuP3hxfto-4" vertex="1">
          <mxGeometry width="20" height="14" relative="1" as="geometry">
            <mxPoint x="-10" y="-7" as="offset" />
          </mxGeometry>
        </mxCell>
        <mxCell id="x7Frr8k84MyhuP3hxfto-12" value="&lt;meta charset=&quot;utf-8&quot;&gt;&lt;span style=&quot;color: rgb(90, 169, 230); font-family: Helvetica; font-size: 12px; font-style: normal; font-variant-ligatures: normal; font-variant-caps: normal; font-weight: 400; letter-spacing: normal; orphans: 2; text-align: center; text-indent: 0px; text-transform: none; widows: 2; word-spacing: 0px; -webkit-text-stroke-width: 0px; background-color: rgb(248, 249, 250); text-decoration-thickness: initial; text-decoration-style: initial; text-decoration-color: initial; float: none; display: inline !important;&quot;&gt;Carrier 导入 DP Admin&lt;/span&gt;" style="text;whiteSpace=wrap;html=1;fontColor=#1A1A1A;" parent="WIyWlLk6GJQsqaUBKTNV-1" vertex="1">
          <mxGeometry x="50" y="80" width="150" height="30" as="geometry" />
        </mxCell>
        <mxCell id="x7Frr8k84MyhuP3hxfto-14" value="PM / Local 填写 &lt;br&gt;模板" style="rounded=1;whiteSpace=wrap;html=1;fontSize=12;glass=0;strokeWidth=1;shadow=0;sketch=1;fillColor=#FAD9D5;strokeColor=#D0CEE2;fontColor=#1A1A1A;" parent="WIyWlLk6GJQsqaUBKTNV-1" vertex="1">
          <mxGeometry x="310" y="310" width="160" height="60" as="geometry" />
        </mxCell>
        <mxCell id="x7Frr8k84MyhuP3hxfto-24" style="edgeStyle=orthogonalEdgeStyle;curved=0;rounded=1;sketch=1;orthogonalLoop=1;jettySize=auto;html=1;exitX=1;exitY=0.5;exitDx=0;exitDy=0;entryX=0;entryY=0.5;entryDx=0;entryDy=0;fontColor=#1A1A1A;strokeColor=#09555B;" parent="WIyWlLk6GJQsqaUBKTNV-1" source="x7Frr8k84MyhuP3hxfto-16" target="x7Frr8k84MyhuP3hxfto-22" edge="1">
          <mxGeometry relative="1" as="geometry" />
        </mxCell>
        <mxCell id="x7Frr8k84MyhuP3hxfto-16" value="PM / Local 填写&lt;br&gt;Bill Config Admin" style="rounded=1;whiteSpace=wrap;html=1;fontSize=12;glass=0;strokeWidth=1;shadow=0;sketch=1;fillColor=#FAD9D5;strokeColor=#D0CEE2;fontColor=#1A1A1A;" parent="WIyWlLk6GJQsqaUBKTNV-1" vertex="1">
          <mxGeometry x="310" y="400" width="160" height="60" as="geometry" />
        </mxCell>
        <mxCell id="x7Frr8k84MyhuP3hxfto-21" value="" style="endArrow=classic;html=1;rounded=1;sketch=1;fontColor=#1A1A1A;strokeColor=#09555B;curved=0;entryX=0;entryY=0.5;entryDx=0;entryDy=0;exitX=1;exitY=0;exitDx=0;exitDy=0;" parent="WIyWlLk6GJQsqaUBKTNV-1" source="x7Frr8k84MyhuP3hxfto-0" target="x7Frr8k84MyhuP3hxfto-14" edge="1">
          <mxGeometry width="50" height="50" relative="1" as="geometry">
            <mxPoint x="180" y="560" as="sourcePoint" />
            <mxPoint x="230" y="510" as="targetPoint" />
          </mxGeometry>
        </mxCell>
        <mxCell id="x7Frr8k84MyhuP3hxfto-26" value="" style="edgeStyle=orthogonalEdgeStyle;curved=0;rounded=1;sketch=1;orthogonalLoop=1;jettySize=auto;html=1;fontColor=#1A1A1A;strokeColor=#09555B;" parent="WIyWlLk6GJQsqaUBKTNV-1" source="x7Frr8k84MyhuP3hxfto-22" target="x7Frr8k84MyhuP3hxfto-25" edge="1">
          <mxGeometry relative="1" as="geometry" />
        </mxCell>
        <mxCell id="x7Frr8k84MyhuP3hxfto-22" value="生成 Excel (PRD)" style="rounded=1;whiteSpace=wrap;html=1;fontSize=12;glass=0;strokeWidth=1;shadow=0;sketch=1;fillColor=#FAD9D5;strokeColor=#D0CEE2;fontColor=#1A1A1A;" parent="WIyWlLk6GJQsqaUBKTNV-1" vertex="1">
          <mxGeometry x="530" y="400" width="160" height="60" as="geometry" />
        </mxCell>
        <mxCell id="x7Frr8k84MyhuP3hxfto-23" value="" style="endArrow=classic;html=1;rounded=1;sketch=1;fontColor=#1A1A1A;strokeColor=#09555B;curved=0;entryX=0;entryY=0;entryDx=0;entryDy=0;exitX=1;exitY=0.5;exitDx=0;exitDy=0;" parent="WIyWlLk6GJQsqaUBKTNV-1" source="x7Frr8k84MyhuP3hxfto-14" target="x7Frr8k84MyhuP3hxfto-22" edge="1">
          <mxGeometry width="50" height="50" relative="1" as="geometry">
            <mxPoint x="240" y="410" as="sourcePoint" />
            <mxPoint x="320" y="350" as="targetPoint" />
          </mxGeometry>
        </mxCell>
        <mxCell id="x7Frr8k84MyhuP3hxfto-32" value="" style="edgeStyle=orthogonalEdgeStyle;curved=0;rounded=1;sketch=1;orthogonalLoop=1;jettySize=auto;html=1;fontColor=#1A1A1A;strokeColor=#09555B;" parent="WIyWlLk6GJQsqaUBKTNV-1" source="x7Frr8k84MyhuP3hxfto-25" target="x7Frr8k84MyhuP3hxfto-31" edge="1">
          <mxGeometry relative="1" as="geometry" />
        </mxCell>
        <mxCell id="x7Frr8k84MyhuP3hxfto-25" value="FE 填写模板 / Admin" style="fillColor=#FAD9D5;strokeColor=#D0CEE2;fontColor=#1A1A1A;rounded=1;glass=0;strokeWidth=1;shadow=0;sketch=1;align=center;whiteSpace=wrap;html=1;labelBackgroundColor=none;labelBorderColor=none;" parent="WIyWlLk6GJQsqaUBKTNV-1" vertex="1">
          <mxGeometry x="740" y="400" width="140" height="60" as="geometry" />
        </mxCell>
        <mxCell id="x7Frr8k84MyhuP3hxfto-31" value="完成 Bill 配置" style="whiteSpace=wrap;html=1;fillColor=#FAD9D5;strokeColor=#D0CEE2;fontColor=#1A1A1A;rounded=1;glass=0;strokeWidth=1;shadow=0;sketch=1;labelBackgroundColor=none;labelBorderColor=none;" parent="WIyWlLk6GJQsqaUBKTNV-1" vertex="1">
          <mxGeometry x="950" y="400" width="120" height="60" as="geometry" />
        </mxCell>
        <mxCell id="x7Frr8k84MyhuP3hxfto-33" value="&lt;br&gt;QA" style="shape=actor;whiteSpace=wrap;html=1;rounded=0;labelBackgroundColor=none;labelBorderColor=none;sketch=1;fontColor=#1A1A1A;strokeColor=#D0CEE2;fillColor=none;" parent="WIyWlLk6GJQsqaUBKTNV-1" vertex="1">
          <mxGeometry x="630.17" y="220" width="26.67" height="40" as="geometry" />
        </mxCell>
        <mxCell id="x7Frr8k84MyhuP3hxfto-41" value="" style="sketch=0;pointerEvents=1;shadow=0;dashed=0;html=1;strokeColor=#D0CEE2;fillColor=#09555B;aspect=fixed;labelPosition=center;verticalLabelPosition=bottom;verticalAlign=top;align=center;outlineConnect=0;shape=mxgraph.vvd.web_browser;rounded=0;labelBackgroundColor=none;labelBorderColor=none;fontSize=12;fontColor=#1A1A1A;" parent="WIyWlLk6GJQsqaUBKTNV-1" vertex="1">
          <mxGeometry x="70" y="230" width="80" height="56.8" as="geometry" />
        </mxCell>
        <mxCell id="x7Frr8k84MyhuP3hxfto-43" value="&lt;span style=&quot;color: rgb(90, 169, 230); font-family: Helvetica; font-size: 12px; font-style: normal; font-variant-ligatures: normal; font-variant-caps: normal; font-weight: 400; letter-spacing: normal; orphans: 2; text-align: center; text-indent: 0px; text-transform: none; widows: 2; word-spacing: 0px; -webkit-text-stroke-width: 0px; background-color: rgb(248, 249, 250); text-decoration-thickness: initial; text-decoration-style: initial; text-decoration-color: initial; float: none; display: inline !important;&quot;&gt;DP Admin&lt;br&gt;&lt;/span&gt;" style="text;whiteSpace=wrap;html=1;fontColor=#1A1A1A;" parent="WIyWlLk6GJQsqaUBKTNV-1" vertex="1">
          <mxGeometry x="160" y="243.40000000000003" width="60" height="30" as="geometry" />
        </mxCell>
        <mxCell id="x7Frr8k84MyhuP3hxfto-45" value="" style="shape=image;html=1;verticalAlign=top;verticalLabelPosition=bottom;imageAspect=0;aspect=fixed;image=https://cdn0.iconfinder.com/data/icons/logos-brands/24/logo_brand_brands_logos_excel-128.png;rounded=0;labelBorderColor=none;sketch=1;fontSize=12;fontColor=#1A1A1A;strokeColor=#D0CEE2;fillColor=none;imageBackground=#FFE45E;imageBorder=none;fillStyle=auto;" parent="WIyWlLk6GJQsqaUBKTNV-1" vertex="1">
          <mxGeometry x="85.5" y="115" width="49" height="49" as="geometry" />
        </mxCell>
        <mxCell id="x7Frr8k84MyhuP3hxfto-46" value="&lt;span style=&quot;color: rgb(90, 169, 230); font-family: Helvetica; font-size: 12px; font-style: normal; font-variant-ligatures: normal; font-variant-caps: normal; font-weight: 400; letter-spacing: normal; orphans: 2; text-align: center; text-indent: 0px; text-transform: none; widows: 2; word-spacing: 0px; -webkit-text-stroke-width: 0px; background-color: rgb(248, 249, 250); text-decoration-thickness: initial; text-decoration-style: initial; text-decoration-color: initial; float: none; display: inline !important;&quot;&gt;Carriers File&lt;/span&gt;" style="text;whiteSpace=wrap;html=1;fontColor=#1A1A1A;" parent="WIyWlLk6GJQsqaUBKTNV-1" vertex="1">
          <mxGeometry x="160" y="124.5" width="130" height="30" as="geometry" />
        </mxCell>
        <mxCell id="x7Frr8k84MyhuP3hxfto-47" value="&lt;br&gt;BE" style="shape=actor;whiteSpace=wrap;html=1;rounded=0;labelBackgroundColor=none;labelBorderColor=none;sketch=1;fontColor=#1A1A1A;strokeColor=#D0CEE2;fillColor=none;" parent="WIyWlLk6GJQsqaUBKTNV-1" vertex="1">
          <mxGeometry x="563.17" y="220" width="26.67" height="40" as="geometry" />
        </mxCell>
        <mxCell id="x7Frr8k84MyhuP3hxfto-53" value="" style="endArrow=classic;html=1;rounded=1;sketch=1;fontSize=12;fontColor=#1A1A1A;strokeColor=#09555B;curved=0;" parent="WIyWlLk6GJQsqaUBKTNV-1" edge="1">
          <mxGeometry width="50" height="50" relative="1" as="geometry">
            <mxPoint x="579.8399999999999" y="271.40000000000003" as="sourcePoint" />
            <mxPoint x="589.8399999999999" y="331.40000000000003" as="targetPoint" />
          </mxGeometry>
        </mxCell>
        <mxCell id="x7Frr8k84MyhuP3hxfto-54" value="" style="endArrow=classic;html=1;rounded=1;sketch=1;fontSize=12;fontColor=#1A1A1A;strokeColor=#09555B;curved=0;" parent="WIyWlLk6GJQsqaUBKTNV-1" edge="1">
          <mxGeometry width="50" height="50" relative="1" as="geometry">
            <mxPoint x="644.17" y="271.40000000000003" as="sourcePoint" />
            <mxPoint x="634.17" y="331.40000000000003" as="targetPoint" />
          </mxGeometry>
        </mxCell>
        <mxCell id="x7Frr8k84MyhuP3hxfto-55" value="" style="shape=image;html=1;verticalAlign=top;verticalLabelPosition=bottom;imageAspect=0;aspect=fixed;image=https://cdn0.iconfinder.com/data/icons/logos-brands/24/logo_brand_brands_logos_excel-128.png;rounded=0;labelBorderColor=none;sketch=1;fontSize=12;fontColor=#1A1A1A;strokeColor=#D0CEE2;fillColor=none;imageBackground=#FFE45E;imageBorder=none;fillStyle=auto;" parent="WIyWlLk6GJQsqaUBKTNV-1" vertex="1">
          <mxGeometry x="585.51" y="330" width="49" height="49" as="geometry" />
        </mxCell>
        <mxCell id="x7Frr8k84MyhuP3hxfto-56" value="&lt;br&gt;FE" style="shape=actor;whiteSpace=wrap;html=1;rounded=0;labelBackgroundColor=none;labelBorderColor=none;sketch=1;fontColor=#1A1A1A;strokeColor=#D0CEE2;fillColor=none;" parent="WIyWlLk6GJQsqaUBKTNV-1" vertex="1">
          <mxGeometry x="796.66" y="220" width="26.67" height="40" as="geometry" />
        </mxCell>
        <mxCell id="x7Frr8k84MyhuP3hxfto-57" value="&lt;br&gt;PM" style="shape=actor;whiteSpace=wrap;html=1;rounded=0;labelBackgroundColor=none;labelBorderColor=none;sketch=1;fontColor=#1A1A1A;strokeColor=#D0CEE2;fillColor=none;" parent="WIyWlLk6GJQsqaUBKTNV-1" vertex="1">
          <mxGeometry x="376.65999999999997" y="220" width="26.67" height="40" as="geometry" />
        </mxCell>
        <mxCell id="x7Frr8k84MyhuP3hxfto-58" value="" style="endArrow=classic;html=1;rounded=1;sketch=1;fontSize=12;fontColor=#1A1A1A;strokeColor=#09555B;curved=0;" parent="WIyWlLk6GJQsqaUBKTNV-1" edge="1">
          <mxGeometry width="50" height="50" relative="1" as="geometry">
            <mxPoint x="810" y="270" as="sourcePoint" />
            <mxPoint x="809.6" y="379" as="targetPoint" />
          </mxGeometry>
        </mxCell>
        <mxCell id="x7Frr8k84MyhuP3hxfto-59" value="" style="endArrow=classic;html=1;rounded=1;sketch=1;fontSize=12;fontColor=#1A1A1A;strokeColor=#09555B;curved=0;" parent="WIyWlLk6GJQsqaUBKTNV-1" edge="1">
          <mxGeometry width="50" height="50" relative="1" as="geometry">
            <mxPoint x="389.5999999999999" y="270" as="sourcePoint" />
            <mxPoint x="389.99" y="305" as="targetPoint" />
          </mxGeometry>
        </mxCell>
      </root>
    </mxGraphModel>
  </diagram>
  <diagram id="HuGiwMaVOmmq-freKu0r" name="第 2 页">
    <mxGraphModel dx="1234" dy="736" grid="1" gridSize="10" guides="1" tooltips="1" connect="1" arrows="1" fold="1" page="1" pageScale="1" pageWidth="827" pageHeight="1169" math="0" shadow="0">
      <root>
        <mxCell id="0" />
        <mxCell id="1" parent="0" />
        <mxCell id="SHqyNCqeRSTQMKuwKPMS-1" value="" style="rounded=0;whiteSpace=wrap;html=1;sketch=1;fontColor=#1A1A1A;strokeColor=#D0CEE2;fillColor=none;" vertex="1" parent="1">
          <mxGeometry x="80" y="162.25" width="320" height="150" as="geometry" />
        </mxCell>
        <mxCell id="q8QDfCW9DBh8NUIYKSAu-1" value="" style="shape=image;html=1;verticalAlign=top;verticalLabelPosition=bottom;imageAspect=0;aspect=fixed;image=https://cdn0.iconfinder.com/data/icons/logos-brands/24/logo_brand_brands_logos_excel-128.png;rounded=0;labelBorderColor=none;sketch=1;fontSize=12;fontColor=#1A1A1A;strokeColor=#D0CEE2;fillColor=none;imageBackground=#FFE45E;imageBorder=none;fillStyle=auto;" vertex="1" parent="1">
          <mxGeometry x="300" y="200" width="74.5" height="74.5" as="geometry" />
        </mxCell>
        <mxCell id="q8QDfCW9DBh8NUIYKSAu-3" value="" style="dashed=0;outlineConnect=0;html=1;align=center;labelPosition=center;verticalLabelPosition=bottom;verticalAlign=top;shape=mxgraph.webicons.json;sketch=0;fillColor=none;strokeColor=#D0CEE2;fontColor=#1A1A1A;" vertex="1" parent="1">
          <mxGeometry x="90" y="186.05" width="102.4" height="102.4" as="geometry" />
        </mxCell>
        <mxCell id="q8QDfCW9DBh8NUIYKSAu-4" value="" style="shape=flexArrow;endArrow=classic;startArrow=classic;html=1;rounded=0;entryX=0;entryY=0.5;entryDx=0;entryDy=0;strokeColor=#09555B;fontColor=#1A1A1A;" edge="1" parent="1" source="q8QDfCW9DBh8NUIYKSAu-3" target="q8QDfCW9DBh8NUIYKSAu-1">
          <mxGeometry width="100" height="100" relative="1" as="geometry">
            <mxPoint x="380" y="610" as="sourcePoint" />
            <mxPoint x="390" y="390" as="targetPoint" />
          </mxGeometry>
        </mxCell>
        <mxCell id="q8QDfCW9DBh8NUIYKSAu-5" value="转换" style="edgeLabel;html=1;align=center;verticalAlign=middle;resizable=0;points=[];fontSize=20;fontColor=#1A1A1A;" vertex="1" connectable="0" parent="q8QDfCW9DBh8NUIYKSAu-4">
          <mxGeometry x="-0.1413" y="1" relative="1" as="geometry">
            <mxPoint as="offset" />
          </mxGeometry>
        </mxCell>
        <mxCell id="SHqyNCqeRSTQMKuwKPMS-3" value="" style="rounded=0;whiteSpace=wrap;html=1;sketch=1;fontColor=#1A1A1A;strokeColor=#D0CEE2;fillColor=none;" vertex="1" parent="1">
          <mxGeometry x="80" y="360" width="320" height="150" as="geometry" />
        </mxCell>
        <mxCell id="DjhEs2mXQRsO_92ABjr9-1" value="" style="shape=image;html=1;verticalAlign=top;verticalLabelPosition=bottom;labelBackgroundColor=#ffffff;imageAspect=0;aspect=fixed;image=https://cdn4.iconfinder.com/data/icons/essential-3/32/389-Browser_Layout-128.png;rounded=0;sketch=0;fontColor=#1A1A1A;strokeColor=#D0CEE2;fillColor=#FAD9D5;" vertex="1" parent="1">
          <mxGeometry x="110" y="387.75" width="94.5" height="94.5" as="geometry" />
        </mxCell>
      </root>
    </mxGraphModel>
  </diagram>
  <diagram id="YCzogONuC1grVszoGsav" name="第 3 页">
    <mxGraphModel dx="1234" dy="736" grid="1" gridSize="10" guides="1" tooltips="1" connect="1" arrows="1" fold="1" page="1" pageScale="1" pageWidth="827" pageHeight="1169" math="0" shadow="0">
      <root>
        <mxCell id="0" />
        <mxCell id="1" parent="0" />
        <mxCell id="n3fZYh0UKUpLPUGq8xj8-1" value="" style="rounded=0;whiteSpace=wrap;html=1;sketch=1;fontColor=#1A1A1A;strokeColor=#D0CEE2;fillColor=none;" vertex="1" parent="1">
          <mxGeometry x="100" y="265" width="360" height="235" as="geometry" />
        </mxCell>
        <mxCell id="ebuxM-2fiHtfYvH8RAu9-1" value="模板设计" style="rounded=1;whiteSpace=wrap;html=1;sketch=1;strokeColor=#6c8ebf;fillColor=#dae8fc;fontFamily=手札体-简;fontSize=15;" vertex="1" parent="1">
          <mxGeometry x="130" y="310" width="120" height="60" as="geometry" />
        </mxCell>
        <mxCell id="n3fZYh0UKUpLPUGq8xj8-2" value="&lt;div style=&quot;text-align: start;&quot;&gt;&lt;span style=&quot;background-color: initial;&quot;&gt;模板&amp;lt;==&amp;gt;&lt;/span&gt;&lt;span style=&quot;background-color: initial;&quot;&gt;配置&lt;/span&gt;&lt;/div&gt;" style="rounded=1;whiteSpace=wrap;html=1;sketch=1;strokeColor=#6c8ebf;fillColor=#dae8fc;fontFamily=手札体-简;fontSize=15;" vertex="1" parent="1">
          <mxGeometry x="300" y="310" width="120" height="60" as="geometry" />
        </mxCell>
        <mxCell id="n3fZYh0UKUpLPUGq8xj8-3" value="后台接口配置" style="rounded=1;whiteSpace=wrap;html=1;sketch=1;strokeColor=#6c8ebf;fillColor=#dae8fc;fontFamily=手札体-简;fontSize=15;" vertex="1" parent="1">
          <mxGeometry x="300" y="400" width="120" height="60" as="geometry" />
        </mxCell>
        <mxCell id="n3fZYh0UKUpLPUGq8xj8-4" value="字段备注功能" style="rounded=1;whiteSpace=wrap;html=1;sketch=1;strokeColor=#6c8ebf;fillColor=#dae8fc;fontFamily=手札体-简;fontSize=15;" vertex="1" parent="1">
          <mxGeometry x="130" y="400" width="120" height="60" as="geometry" />
        </mxCell>
      </root>
    </mxGraphModel>
  </diagram>
  <diagram id="qidn5dLupte3tVjYl4i5" name="第 4 页">
    <mxGraphModel dx="1234" dy="1905" grid="1" gridSize="10" guides="1" tooltips="1" connect="1" arrows="1" fold="1" page="1" pageScale="1" pageWidth="827" pageHeight="1169" math="0" shadow="0">
      <root>
        <mxCell id="0" />
        <mxCell id="1" parent="0" />
        <mxCell id="KUeKO058vVJVvG5vHiWK-32" value="" style="shape=actor;whiteSpace=wrap;html=1;rounded=0;sketch=1;strokeColor=#d6b656;fillColor=#fff2cc;" vertex="1" parent="1">
          <mxGeometry x="580" y="-30" width="40" height="60" as="geometry" />
        </mxCell>
        <mxCell id="KUeKO058vVJVvG5vHiWK-33" value="" style="shape=actor;whiteSpace=wrap;html=1;rounded=0;sketch=1;strokeColor=#d6b656;fillColor=#fff2cc;" vertex="1" parent="1">
          <mxGeometry x="740" y="-30" width="40" height="60" as="geometry" />
        </mxCell>
        <mxCell id="KUeKO058vVJVvG5vHiWK-31" value="" style="shape=actor;whiteSpace=wrap;html=1;rounded=0;sketch=1;strokeColor=#d6b656;fillColor=#fff2cc;" vertex="1" parent="1">
          <mxGeometry x="420" y="-30" width="40" height="60" as="geometry" />
        </mxCell>
        <mxCell id="KUeKO058vVJVvG5vHiWK-30" value="" style="shape=actor;whiteSpace=wrap;html=1;rounded=0;sketch=1;strokeColor=#d6b656;fillColor=#fff2cc;" vertex="1" parent="1">
          <mxGeometry x="260" y="-30" width="40" height="60" as="geometry" />
        </mxCell>
        <mxCell id="KUeKO058vVJVvG5vHiWK-2" value="" style="shape=link;html=1;rounded=1;sketch=1;fontFamily=中文字体;fontSource=http%3A%2F%2Fwww.kendraschaefer.com%2F2012%2F06%2Fchinese-standard-web-fonts-the-ultimate-guide-to-css-font-family-declarations-for-web-design-in-simplified-chinese%2F;fontSize=10;fontColor=#1A1A1A;strokeColor=#09555B;curved=1;" edge="1" parent="1">
          <mxGeometry width="100" relative="1" as="geometry">
            <mxPoint x="200" y="40" as="sourcePoint" />
            <mxPoint x="200" y="1680" as="targetPoint" />
          </mxGeometry>
        </mxCell>
        <mxCell id="KUeKO058vVJVvG5vHiWK-3" value="PM，BPM，Local" style="text;html=1;align=center;verticalAlign=middle;resizable=0;points=[];autosize=1;strokeColor=none;fillColor=none;fontSize=10;fontFamily=手札体-简;fontColor=#1A1A1A;sketch=1;" vertex="1" parent="1">
          <mxGeometry x="230" width="110" height="30" as="geometry" />
        </mxCell>
        <mxCell id="KUeKO058vVJVvG5vHiWK-4" value="BE" style="text;html=1;align=center;verticalAlign=middle;resizable=0;points=[];autosize=1;strokeColor=none;fillColor=none;fontSize=10;fontFamily=手札体-简;fontColor=#1A1A1A;sketch=1;" vertex="1" parent="1">
          <mxGeometry x="420" width="40" height="30" as="geometry" />
        </mxCell>
        <mxCell id="KUeKO058vVJVvG5vHiWK-5" value="" style="shape=link;html=1;rounded=1;sketch=1;fontFamily=中文字体;fontSource=http%3A%2F%2Fwww.kendraschaefer.com%2F2012%2F06%2Fchinese-standard-web-fonts-the-ultimate-guide-to-css-font-family-declarations-for-web-design-in-simplified-chinese%2F;fontSize=10;fontColor=#1A1A1A;strokeColor=#09555B;curved=1;" edge="1" parent="1">
          <mxGeometry width="100" relative="1" as="geometry">
            <mxPoint x="360" y="40" as="sourcePoint" />
            <mxPoint x="360" y="1680" as="targetPoint" />
          </mxGeometry>
        </mxCell>
        <mxCell id="KUeKO058vVJVvG5vHiWK-6" value="FE" style="text;html=1;align=center;verticalAlign=middle;resizable=0;points=[];autosize=1;strokeColor=none;fillColor=none;fontSize=10;fontFamily=手札体-简;fontColor=#1A1A1A;sketch=1;" vertex="1" parent="1">
          <mxGeometry x="580" width="40" height="30" as="geometry" />
        </mxCell>
        <mxCell id="KUeKO058vVJVvG5vHiWK-7" value="" style="shape=link;html=1;rounded=1;sketch=1;fontFamily=中文字体;fontSource=http%3A%2F%2Fwww.kendraschaefer.com%2F2012%2F06%2Fchinese-standard-web-fonts-the-ultimate-guide-to-css-font-family-declarations-for-web-design-in-simplified-chinese%2F;fontSize=10;fontColor=#1A1A1A;strokeColor=#09555B;curved=1;" edge="1" parent="1">
          <mxGeometry width="100" relative="1" as="geometry">
            <mxPoint x="520" y="40" as="sourcePoint" />
            <mxPoint x="520" y="1680" as="targetPoint" />
          </mxGeometry>
        </mxCell>
        <mxCell id="KUeKO058vVJVvG5vHiWK-10" value="QA" style="text;html=1;align=center;verticalAlign=middle;resizable=0;points=[];autosize=1;strokeColor=none;fillColor=none;fontSize=10;fontFamily=手札体-简;fontColor=#1A1A1A;sketch=1;" vertex="1" parent="1">
          <mxGeometry x="740" width="40" height="30" as="geometry" />
        </mxCell>
        <mxCell id="KUeKO058vVJVvG5vHiWK-11" value="" style="shape=link;html=1;rounded=1;sketch=1;fontFamily=中文字体;fontSource=http%3A%2F%2Fwww.kendraschaefer.com%2F2012%2F06%2Fchinese-standard-web-fonts-the-ultimate-guide-to-css-font-family-declarations-for-web-design-in-simplified-chinese%2F;fontSize=10;fontColor=#1A1A1A;strokeColor=#09555B;curved=1;" edge="1" parent="1">
          <mxGeometry width="100" relative="1" as="geometry">
            <mxPoint x="680" y="40" as="sourcePoint" />
            <mxPoint x="680" y="1680" as="targetPoint" />
          </mxGeometry>
        </mxCell>
        <mxCell id="KUeKO058vVJVvG5vHiWK-14" value="" style="shape=link;html=1;rounded=1;sketch=1;fontFamily=中文字体;fontSource=http%3A%2F%2Fwww.kendraschaefer.com%2F2012%2F06%2Fchinese-standard-web-fonts-the-ultimate-guide-to-css-font-family-declarations-for-web-design-in-simplified-chinese%2F;fontSize=10;fontColor=#1A1A1A;strokeColor=#09555B;curved=1;" edge="1" parent="1">
          <mxGeometry width="100" relative="1" as="geometry">
            <mxPoint x="840" y="40" as="sourcePoint" />
            <mxPoint x="830" y="1680" as="targetPoint" />
          </mxGeometry>
        </mxCell>
        <mxCell id="KUeKO058vVJVvG5vHiWK-17" value="" style="edgeStyle=orthogonalEdgeStyle;rounded=1;sketch=1;orthogonalLoop=1;jettySize=auto;html=1;fontColor=#1A1A1A;strokeColor=#09555B;exitX=0.5;exitY=1;exitDx=0;exitDy=0;curved=1;" edge="1" parent="1" source="KUeKO058vVJVvG5vHiWK-15" target="KUeKO058vVJVvG5vHiWK-16">
          <mxGeometry relative="1" as="geometry" />
        </mxCell>
        <mxCell id="KUeKO058vVJVvG5vHiWK-15" value="填写 Carrier 文件" style="rounded=1;whiteSpace=wrap;html=1;sketch=1;fontFamily=手札体-简;fontSize=10;strokeColor=#6c8ebf;fillColor=#dae8fc;" vertex="1" parent="1">
          <mxGeometry x="220" y="190" width="120" height="60" as="geometry" />
        </mxCell>
        <mxCell id="KUeKO058vVJVvG5vHiWK-19" value="" style="edgeStyle=orthogonalEdgeStyle;rounded=1;sketch=1;orthogonalLoop=1;jettySize=auto;html=1;fontColor=#1A1A1A;strokeColor=#09555B;curved=1;" edge="1" parent="1" source="KUeKO058vVJVvG5vHiWK-16" target="KUeKO058vVJVvG5vHiWK-18">
          <mxGeometry relative="1" as="geometry" />
        </mxCell>
        <mxCell id="KUeKO058vVJVvG5vHiWK-21" style="edgeStyle=orthogonalEdgeStyle;rounded=1;sketch=1;orthogonalLoop=1;jettySize=auto;html=1;exitX=0.5;exitY=1;exitDx=0;exitDy=0;entryX=0.5;entryY=0;entryDx=0;entryDy=0;fontColor=#1A1A1A;strokeColor=#09555B;curved=1;" edge="1" parent="1" source="KUeKO058vVJVvG5vHiWK-16" target="KUeKO058vVJVvG5vHiWK-20">
          <mxGeometry relative="1" as="geometry" />
        </mxCell>
        <mxCell id="KUeKO058vVJVvG5vHiWK-16" value="上传 Carrier 到 Admin" style="whiteSpace=wrap;html=1;fontSize=10;fontFamily=手札体-简;fillColor=#dae8fc;strokeColor=#6c8ebf;rounded=1;sketch=1;" vertex="1" parent="1">
          <mxGeometry x="540" y="310" width="120" height="60" as="geometry" />
        </mxCell>
        <mxCell id="KUeKO058vVJVvG5vHiWK-18" value="生成模板文件" style="whiteSpace=wrap;html=1;fontSize=10;fontFamily=手札体-简;fillColor=#dae8fc;strokeColor=#6c8ebf;rounded=1;sketch=1;" vertex="1" parent="1">
          <mxGeometry x="540" y="420" width="120" height="60" as="geometry" />
        </mxCell>
        <mxCell id="KUeKO058vVJVvG5vHiWK-20" value="在 Bill Config Admin 或模板文件填写&lt;br&gt;配置、备注" style="whiteSpace=wrap;html=1;fontSize=10;fontFamily=手札体-简;fillColor=#dae8fc;strokeColor=#6c8ebf;rounded=1;sketch=1;" vertex="1" parent="1">
          <mxGeometry x="220" y="480" width="120" height="70" as="geometry" />
        </mxCell>
        <mxCell id="KUeKO058vVJVvG5vHiWK-29" style="edgeStyle=orthogonalEdgeStyle;rounded=1;sketch=1;orthogonalLoop=1;jettySize=auto;html=1;fontColor=#1A1A1A;strokeColor=#09555B;curved=1;" edge="1" parent="1" source="KUeKO058vVJVvG5vHiWK-20">
          <mxGeometry relative="1" as="geometry">
            <mxPoint x="600" y="700" as="targetPoint" />
            <mxPoint x="350" y="550" as="sourcePoint" />
          </mxGeometry>
        </mxCell>
        <mxCell id="KUeKO058vVJVvG5vHiWK-28" value="" style="edgeStyle=orthogonalEdgeStyle;rounded=1;sketch=1;orthogonalLoop=1;jettySize=auto;html=1;fontColor=#1A1A1A;strokeColor=#09555B;exitX=0.5;exitY=1;exitDx=0;exitDy=0;curved=1;" edge="1" parent="1" source="KUeKO058vVJVvG5vHiWK-26" target="KUeKO058vVJVvG5vHiWK-27">
          <mxGeometry relative="1" as="geometry" />
        </mxCell>
        <mxCell id="KUeKO058vVJVvG5vHiWK-26" value="填写接口配置" style="whiteSpace=wrap;html=1;fontSize=10;fontFamily=手札体-简;fillColor=#dae8fc;strokeColor=#6c8ebf;rounded=1;sketch=1;" vertex="1" parent="1">
          <mxGeometry x="380" y="585" width="120" height="60" as="geometry" />
        </mxCell>
        <mxCell id="KUeKO058vVJVvG5vHiWK-35" value="" style="edgeStyle=orthogonalEdgeStyle;rounded=1;sketch=1;orthogonalLoop=1;jettySize=auto;html=1;fontColor=#1A1A1A;strokeColor=#09555B;curved=1;" edge="1" parent="1" source="KUeKO058vVJVvG5vHiWK-27" target="KUeKO058vVJVvG5vHiWK-34">
          <mxGeometry relative="1" as="geometry" />
        </mxCell>
        <mxCell id="KUeKO058vVJVvG5vHiWK-27" value="&lt;div style=&quot;&quot;&gt;&lt;span style=&quot;background-color: initial;&quot;&gt;根据&amp;nbsp; &amp;nbsp; &amp;nbsp; &amp;nbsp; &amp;nbsp; &amp;nbsp;&amp;nbsp;&lt;/span&gt;&lt;/div&gt;&lt;div style=&quot;&quot;&gt;&lt;span style=&quot;background-color: initial;&quot;&gt;&amp;nbsp;1、PM 备注&amp;nbsp;&amp;nbsp;&lt;/span&gt;&lt;/div&gt;&lt;div style=&quot;&quot;&gt;&lt;span style=&quot;background-color: initial;&quot;&gt;2、接口配置&lt;/span&gt;&lt;/div&gt;&lt;div style=&quot;&quot;&gt;&lt;span style=&quot;background-color: initial;&quot;&gt;填写模板文件&lt;/span&gt;&lt;/div&gt;" style="whiteSpace=wrap;html=1;fontSize=10;fontFamily=手札体-简;fillColor=#dae8fc;strokeColor=#6c8ebf;rounded=1;sketch=1;align=center;" vertex="1" parent="1">
          <mxGeometry x="540" y="700" width="120" height="80" as="geometry" />
        </mxCell>
        <mxCell id="KUeKO058vVJVvG5vHiWK-38" value="" style="edgeStyle=orthogonalEdgeStyle;rounded=1;sketch=1;orthogonalLoop=1;jettySize=auto;html=1;fontColor=#1A1A1A;strokeColor=#09555B;exitX=0.5;exitY=1;exitDx=0;exitDy=0;curved=1;" edge="1" parent="1" source="KUeKO058vVJVvG5vHiWK-34" target="KUeKO058vVJVvG5vHiWK-37">
          <mxGeometry relative="1" as="geometry" />
        </mxCell>
        <mxCell id="KUeKO058vVJVvG5vHiWK-34" value="模板文件导入 Admin 完成配置" style="whiteSpace=wrap;html=1;fontSize=10;fontFamily=手札体-简;fillColor=#dae8fc;strokeColor=#6c8ebf;rounded=1;sketch=1;" vertex="1" parent="1">
          <mxGeometry x="540" y="820" width="120" height="60" as="geometry" />
        </mxCell>
        <mxCell id="KUeKO058vVJVvG5vHiWK-40" style="edgeStyle=orthogonalEdgeStyle;rounded=1;sketch=1;orthogonalLoop=1;jettySize=auto;html=1;exitX=0.5;exitY=1;exitDx=0;exitDy=0;entryX=0.5;entryY=0;entryDx=0;entryDy=0;fontColor=#1A1A1A;strokeColor=#09555B;curved=1;" edge="1" parent="1" source="KUeKO058vVJVvG5vHiWK-37" target="KUeKO058vVJVvG5vHiWK-39">
          <mxGeometry relative="1" as="geometry" />
        </mxCell>
        <mxCell id="KUeKO058vVJVvG5vHiWK-37" value="验证功能" style="whiteSpace=wrap;html=1;fontSize=10;fontFamily=手札体-简;fillColor=#dae8fc;strokeColor=#6c8ebf;rounded=1;sketch=1;" vertex="1" parent="1">
          <mxGeometry x="700" y="930" width="120" height="60" as="geometry" />
        </mxCell>
        <mxCell id="KUeKO058vVJVvG5vHiWK-42" value="验证通过" style="edgeStyle=orthogonalEdgeStyle;curved=1;rounded=1;sketch=1;orthogonalLoop=1;jettySize=auto;html=1;fontColor=#1A1A1A;strokeColor=#09555B;exitX=0.5;exitY=1;exitDx=0;exitDy=0;" edge="1" parent="1" source="KUeKO058vVJVvG5vHiWK-39" target="KUeKO058vVJVvG5vHiWK-41">
          <mxGeometry relative="1" as="geometry" />
        </mxCell>
        <mxCell id="KUeKO058vVJVvG5vHiWK-39" value="验证功能" style="whiteSpace=wrap;html=1;fontSize=10;fontFamily=手札体-简;fillColor=#dae8fc;strokeColor=#6c8ebf;rounded=1;sketch=1;" vertex="1" parent="1">
          <mxGeometry x="220" y="1060" width="120" height="60" as="geometry" />
        </mxCell>
        <mxCell id="KUeKO058vVJVvG5vHiWK-49" style="edgeStyle=orthogonalEdgeStyle;curved=1;rounded=1;sketch=1;orthogonalLoop=1;jettySize=auto;html=1;exitX=0.5;exitY=1;exitDx=0;exitDy=0;entryX=0.5;entryY=0;entryDx=0;entryDy=0;fontColor=#1A1A1A;strokeColor=#09555B;" edge="1" parent="1" source="KUeKO058vVJVvG5vHiWK-41" target="KUeKO058vVJVvG5vHiWK-43">
          <mxGeometry relative="1" as="geometry" />
        </mxCell>
        <mxCell id="KUeKO058vVJVvG5vHiWK-41" value="配置 Carrier" style="whiteSpace=wrap;html=1;fontSize=10;fontFamily=手札体-简;fillColor=#dae8fc;strokeColor=#6c8ebf;rounded=1;sketch=1;" vertex="1" parent="1">
          <mxGeometry x="540" y="1200" width="120" height="60" as="geometry" />
        </mxCell>
        <mxCell id="KUeKO058vVJVvG5vHiWK-45" style="edgeStyle=orthogonalEdgeStyle;curved=1;rounded=1;sketch=1;orthogonalLoop=1;jettySize=auto;html=1;fontColor=#1A1A1A;strokeColor=#09555B;exitX=0.5;exitY=1;exitDx=0;exitDy=0;entryX=0.5;entryY=0;entryDx=0;entryDy=0;" edge="1" parent="1" source="KUeKO058vVJVvG5vHiWK-43" target="KUeKO058vVJVvG5vHiWK-46">
          <mxGeometry relative="1" as="geometry">
            <mxPoint x="600" y="1380" as="targetPoint" />
          </mxGeometry>
        </mxCell>
        <mxCell id="KUeKO058vVJVvG5vHiWK-43" value="配置 Entrance、Item" style="whiteSpace=wrap;html=1;fontSize=10;fontFamily=手札体-简;fillColor=#dae8fc;strokeColor=#6c8ebf;rounded=1;sketch=1;" vertex="1" parent="1">
          <mxGeometry x="220" y="1300" width="120" height="60" as="geometry" />
        </mxCell>
        <mxCell id="KUeKO058vVJVvG5vHiWK-51" value="" style="edgeStyle=orthogonalEdgeStyle;curved=1;rounded=1;sketch=1;orthogonalLoop=1;jettySize=auto;html=1;fontColor=#1A1A1A;strokeColor=#09555B;exitX=0.5;exitY=1;exitDx=0;exitDy=0;" edge="1" parent="1" source="KUeKO058vVJVvG5vHiWK-46" target="KUeKO058vVJVvG5vHiWK-50">
          <mxGeometry relative="1" as="geometry" />
        </mxCell>
        <mxCell id="KUeKO058vVJVvG5vHiWK-58" style="edgeStyle=orthogonalEdgeStyle;curved=1;rounded=1;sketch=1;orthogonalLoop=1;jettySize=auto;html=1;exitX=0.5;exitY=1;exitDx=0;exitDy=0;entryX=0.5;entryY=0;entryDx=0;entryDy=0;fontColor=#1A1A1A;strokeColor=#09555B;" edge="1" parent="1" source="KUeKO058vVJVvG5vHiWK-46" target="KUeKO058vVJVvG5vHiWK-57">
          <mxGeometry relative="1" as="geometry" />
        </mxCell>
        <mxCell id="KUeKO058vVJVvG5vHiWK-59" style="edgeStyle=orthogonalEdgeStyle;curved=1;rounded=1;sketch=1;orthogonalLoop=1;jettySize=auto;html=1;exitX=0.5;exitY=1;exitDx=0;exitDy=0;fontColor=#1A1A1A;strokeColor=#09555B;" edge="1" parent="1" source="KUeKO058vVJVvG5vHiWK-46" target="KUeKO058vVJVvG5vHiWK-56">
          <mxGeometry relative="1" as="geometry" />
        </mxCell>
        <mxCell id="KUeKO058vVJVvG5vHiWK-46" value="配置导入 UAT / Live" style="whiteSpace=wrap;html=1;fontSize=10;fontFamily=手札体-简;fillColor=#dae8fc;strokeColor=#6c8ebf;rounded=1;sketch=1;" vertex="1" parent="1">
          <mxGeometry x="540" y="1400" width="120" height="60" as="geometry" />
        </mxCell>
        <mxCell id="KUeKO058vVJVvG5vHiWK-53" value="" style="edgeStyle=orthogonalEdgeStyle;curved=1;rounded=1;sketch=1;orthogonalLoop=1;jettySize=auto;html=1;fontColor=#1A1A1A;strokeColor=#09555B;" edge="1" parent="1" source="KUeKO058vVJVvG5vHiWK-50" target="KUeKO058vVJVvG5vHiWK-52">
          <mxGeometry relative="1" as="geometry" />
        </mxCell>
        <mxCell id="KUeKO058vVJVvG5vHiWK-50" value="验证 (Live Testing)" style="whiteSpace=wrap;html=1;fontSize=10;fontFamily=手札体-简;fillColor=#dae8fc;strokeColor=#6c8ebf;rounded=1;sketch=1;" vertex="1" parent="1">
          <mxGeometry x="220" y="1510" width="120" height="60" as="geometry" />
        </mxCell>
        <mxCell id="KUeKO058vVJVvG5vHiWK-52" value="end" style="ellipse;whiteSpace=wrap;html=1;fontSize=10;fontFamily=手札体-简;fillColor=#dae8fc;strokeColor=#6c8ebf;rounded=1;sketch=1;" vertex="1" parent="1">
          <mxGeometry x="250" y="1640" width="60" height="40" as="geometry" />
        </mxCell>
        <mxCell id="KUeKO058vVJVvG5vHiWK-55" style="edgeStyle=orthogonalEdgeStyle;curved=1;rounded=1;sketch=1;orthogonalLoop=1;jettySize=auto;html=1;exitX=0.5;exitY=1;exitDx=0;exitDy=0;entryX=0.5;entryY=0;entryDx=0;entryDy=0;fontColor=#1A1A1A;strokeColor=#09555B;" edge="1" parent="1" source="KUeKO058vVJVvG5vHiWK-54" target="KUeKO058vVJVvG5vHiWK-15">
          <mxGeometry relative="1" as="geometry" />
        </mxCell>
        <mxCell id="KUeKO058vVJVvG5vHiWK-54" value="start" style="ellipse;whiteSpace=wrap;html=1;fontSize=10;fontFamily=手札体-简;fillColor=#dae8fc;strokeColor=#6c8ebf;rounded=1;sketch=1;" vertex="1" parent="1">
          <mxGeometry x="250" y="110" width="60" height="40" as="geometry" />
        </mxCell>
        <mxCell id="KUeKO058vVJVvG5vHiWK-61" style="edgeStyle=orthogonalEdgeStyle;curved=1;rounded=1;sketch=1;orthogonalLoop=1;jettySize=auto;html=1;exitX=0.5;exitY=1;exitDx=0;exitDy=0;entryX=0.5;entryY=0;entryDx=0;entryDy=0;fontColor=#1A1A1A;strokeColor=#09555B;" edge="1" parent="1" source="KUeKO058vVJVvG5vHiWK-56" target="KUeKO058vVJVvG5vHiWK-52">
          <mxGeometry relative="1" as="geometry" />
        </mxCell>
        <mxCell id="KUeKO058vVJVvG5vHiWK-56" value="Live 检查" style="whiteSpace=wrap;html=1;fontSize=10;fontFamily=手札体-简;fillColor=#dae8fc;strokeColor=#6c8ebf;rounded=1;sketch=1;" vertex="1" parent="1">
          <mxGeometry x="700" y="1530" width="120" height="60" as="geometry" />
        </mxCell>
        <mxCell id="KUeKO058vVJVvG5vHiWK-60" style="edgeStyle=orthogonalEdgeStyle;curved=1;rounded=1;sketch=1;orthogonalLoop=1;jettySize=auto;html=1;exitX=0.5;exitY=1;exitDx=0;exitDy=0;entryX=0.5;entryY=0;entryDx=0;entryDy=0;fontColor=#1A1A1A;strokeColor=#09555B;" edge="1" parent="1" source="KUeKO058vVJVvG5vHiWK-57" target="KUeKO058vVJVvG5vHiWK-52">
          <mxGeometry relative="1" as="geometry" />
        </mxCell>
        <mxCell id="KUeKO058vVJVvG5vHiWK-57" value="Live 检查" style="whiteSpace=wrap;html=1;fontSize=10;fontFamily=手札体-简;fillColor=#dae8fc;strokeColor=#6c8ebf;rounded=1;sketch=1;" vertex="1" parent="1">
          <mxGeometry x="540" y="1530" width="120" height="60" as="geometry" />
        </mxCell>
      </root>
    </mxGraphModel>
  </diagram>
</mxfile>
